# xmcd
# 
# Track frame offsets:
#     150
#     98077
#     186558
#     194234
#     298904
# 
# Disc length: 4464
# 
# Revision: 1
# Processed by: cddbd v1.5.2PL0 Copyright (c) Steve Scherf et al.
# Submitted via: BonkEnc v1.0.8
# 
DISCID=53116e05
DTITLE=Yes - Science Of God Story #2
DYEAR=1974
DGENRE=Progressive Rock
TTITLE0=The Remembering
TTITLE1=The Ancient
TTITLE2=Ritual (A Prelude)
TTITLE3=Ritual
TTITLE4=Roundabout
EXTD=
EXTT0=
EXTT1=
EXTT2=
EXTT3=
EXTT4=
PLAYORDER=
